<?xml version="1.0" encoding="UTF-8" standalone="no"?>
<!-- Created with Inkscape (http://www.inkscape.org/) -->

<svg
   width="285.10886mm"
   height="296.04333mm"
   viewBox="0 0 285.10886 296.04333"
   version="1.1"
   id="svg1"
   xml:space="preserve"
   xmlns="http://www.w3.org/2000/svg"
   xmlns:svg="http://www.w3.org/2000/svg"><defs
     id="defs1" /><g
     id="layer1"
     style="display:inline"
     transform="translate(-255.90206,293.9458)"><path
       style="display:inline;fill:#ed2733;fill-opacity:1"
       d="m 479.03007,311.4694 c -3.64724,-0.0838 -6.74939,-0.22526 -6.89368,-0.31444 -0.14428,-0.0892 -2.19994,-0.34682 -4.56813,-0.57256 -2.36819,-0.22573 -4.40846,-0.47388 -4.53394,-0.55143 -0.12548,-0.0775 -1.33649,-0.31503 -2.69115,-0.52774 -4.08121,-0.64084 -7.75805,-1.34251 -8.08108,-1.54215 -0.16743,-0.10348 -0.99592,-0.31544 -1.84109,-0.47102 -0.84516,-0.15558 -1.65717,-0.38201 -1.80446,-0.50318 -0.14729,-0.12117 -0.98073,-0.40117 -1.85208,-0.62223 -2.55749,-0.64881 -4.45664,-1.2017 -5.02387,-1.46257 -0.53057,-0.24401 -2.14055,-0.79138 -4.36563,-1.48423 -2.03752,-0.63446 -4.16505,-1.46501 -6.51127,-2.54188 -0.59802,-0.27449 -1.17529,-0.49906 -1.28281,-0.49906 -0.19763,0 -4.4373,-1.94626 -5.1705,-2.37356 -0.21828,-0.12722 -1.64703,-0.86038 -3.175,-1.62926 -1.52797,-0.76888 -2.93546,-1.55201 -3.12776,-1.74028 -0.19229,-0.18828 -0.4925,-0.34232 -0.66713,-0.34232 -0.17463,0 -1.02933,-0.47288 -1.89933,-1.05085 -0.87,-0.57797 -1.67234,-1.05422 -1.78298,-1.05834 -0.11063,-0.004 -0.79402,-0.42419 -1.51864,-0.93352 -0.72462,-0.50932 -1.36827,-0.92604 -1.43034,-0.92604 -0.58271,0 -14.74944,-10.03858 -17.35249,-12.29602 -2.21999,-1.92524 -9.70483,-9.5889 -12.79821,-13.10398 -1.85692,-2.11005 -3.69989,-4.19365 -4.09551,-4.63021 -0.39561,-0.43656 -1.96455,-2.46062 -3.48654,-4.49792 -1.52198,-2.03729 -2.83286,-3.76369 -2.91306,-3.83645 -0.16474,-0.14947 -4.21483,-6.2265 -4.62281,-6.93639 -0.14552,-0.25321 -1.34546,-2.33821 -2.66653,-4.63335 -1.32107,-2.29513 -3.33329,-6.07797 -4.47159,-8.40631 -2.11126,-4.31844 -2.21609,-4.54782 -3.44606,-7.54062 -0.38874,-0.94589 -0.8587,-2.07698 -1.04436,-2.51354 -0.18566,-0.43657 -0.60467,-1.50813 -0.93114,-2.38125 -0.32647,-0.87313 -0.76061,-1.94469 -0.96475,-2.38125 -0.20414,-0.43657 -0.48035,-1.15094 -0.6138,-1.5875 -0.13345,-0.43657 -0.59186,-1.75752 -1.01869,-2.93546 -0.42683,-1.17794 -0.86296,-2.60669 -0.96918,-3.175 -0.10622,-0.56831 -0.28895,-1.15236 -0.40608,-1.29788 -0.22297,-0.27702 -0.85606,-2.42267 -1.44424,-4.89479 -0.19043,-0.80036 -0.52507,-2.05052 -0.74364,-2.77812 -0.6439,-2.14349 -0.98138,-3.57373 -1.37348,-5.82084 -0.20314,-1.16416 -0.48323,-2.41432 -0.62243,-2.77812 -0.1392,-0.3638 -0.34201,-1.55443 -0.45069,-2.64584 -0.10868,-1.0914 -0.30071,-2.25669 -0.42672,-2.58952 -0.12602,-0.33284 -0.35134,-1.99971 -0.50072,-3.70417 -0.14938,-1.70446 -0.46008,-4.55533 -0.69044,-6.33528 -0.34601,-2.67344 -0.39577,-5.18121 -0.2861,-14.41979 0.0768,-6.46819 0.25322,-11.74131 0.41847,-12.50644 0.15715,-0.72761 0.40044,-2.45402 0.54065,-3.83646 0.29094,-2.86858 0.90731,-6.74421 1.47275,-9.26042 0.21255,-0.94589 0.45953,-2.3151 0.54884,-3.04271 0.0893,-0.7276 0.32067,-1.91823 0.51416,-2.64583 0.75346,-2.83337 1.43717,-5.59741 1.60347,-6.48229 0.0957,-0.50933 0.2656,-1.04511 0.37751,-1.19063 0.11192,-0.14552 0.28638,-0.6813 0.3877,-1.19062 0.1818,-0.91391 0.967,-3.61503 1.4998,-5.15938 0.15062,-0.43656 0.43611,-1.32953 0.63443,-1.98437 1.22401,-4.04157 2.69942,-8.02026 3.97365,-10.71562 0.48156,-1.01864 1.41344,-3.10224 2.07084,-4.630207 1.26815,-2.947521 3.51762,-7.455553 4.48886,-8.995836 0.92938,-1.473916 1.19834,-1.933143 1.62705,-2.778125 0.22149,-0.436563 0.66975,-1.235628 0.99613,-1.7757 0.32638,-0.540073 1.18516,-1.968823 1.90841,-3.175001 1.6797,-2.801304 3.76843,-5.897052 5.76391,-8.542812 0.10985,-0.145651 0.73493,-0.970241 1.38906,-1.832422 0.65413,-0.86218 1.18933,-1.639558 1.18933,-1.727506 0,-0.08795 0.39083,-0.573153 0.86851,-1.078233 0.47768,-0.505079 1.69807,-1.927475 2.71198,-3.160879 1.01391,-1.233404 2.02206,-2.43002 2.24034,-2.659149 0.21828,-0.229128 0.99161,-1.124979 1.71849,-1.990781 1.40625,-1.674982 9.1115,-9.446214 11.48475,-11.583092 3.60317,-3.24429 8.58092,-7.021293 13.51968,-10.258424 1.67349,-1.096896 3.75653,-2.462351 4.62897,-3.034346 0.87245,-0.571994 1.88448,-1.18982 2.24896,-1.372945 0.36448,-0.183125 1.13895,-0.623929 1.72103,-0.979564 0.58208,-0.355635 1.23693,-0.729919 1.45521,-0.831741 0.21828,-0.101822 0.57547,-0.331185 0.79375,-0.509695 0.73311,-0.599538 7.35719,-4.035785 10.84791,-5.627362 2.98833,-1.362512 9.45504,-3.946668 10.45105,-4.176331 0.43656,-0.100664 0.91439,-0.27686 1.06185,-0.391547 0.14745,-0.114687 0.86183,-0.353579 1.5875,-0.530871 0.72567,-0.177293 1.45189,-0.425251 1.61383,-0.551019 0.16194,-0.125768 0.99537,-0.357709 1.85208,-0.515424 0.85671,-0.157716 1.67672,-0.383675 1.82224,-0.502132 0.14552,-0.118458 0.85989,-0.300709 1.5875,-0.405003 0.7276,-0.104295 1.6801,-0.334879 2.11666,-0.512409 0.43657,-0.177531 1.27,-0.408252 1.85209,-0.512714 0.58208,-0.104463 1.65364,-0.354358 2.38125,-0.555322 2.39137,-0.6605 6.05703,-1.420928 7.67291,-1.591722 0.87313,-0.09229 2.06375,-0.280641 2.64584,-0.418565 1.33311,-0.315879 7.77502,-0.973549 12.96458,-1.323587 4.19988,-0.283284 13.12277,-0.119399 16.66875,0.306151 1.16417,0.139711 3.54542,0.364071 5.29167,0.498579 2.85454,0.219875 5.30381,0.58239 9.26041,1.370623 0.72761,0.144953 2.21589,0.422228 3.3073,0.616166 1.86102,0.330695 4.35505,0.905467 8.06979,1.859752 2.83798,0.729054 7.53846,2.175099 9.17717,2.823248 0.68182,0.269676 1.37296,0.490319 1.53587,0.490319 0.16291,0 0.79568,0.220874 1.40616,0.490831 0.61048,0.269957 1.82434,0.762859 2.69747,1.095336 0.87312,0.332478 1.94468,0.754186 2.38125,0.937128 0.43656,0.182942 1.44859,0.602352 2.24895,0.932022 1.72601,0.710941 5.78595,2.553221 6.35,2.881442 0.21829,0.127016 1.52797,0.803257 2.91042,1.502757 3.10829,1.572754 7.06714,3.811938 8.99583,5.08818 0.80037,0.529611 1.64833,1.081992 1.88436,1.227513 2.58768,1.59537 8.97043,6.22974 13.81262,10.029011 3.78863,2.972635 10.68294,9.548317 14.72878,14.048073 0.91588,1.018645 2.03926,2.268802 2.49638,2.778125 0.45713,0.509323 1.59319,1.878541 2.52458,3.042708 0.93139,1.164167 1.87964,2.31931 2.10722,2.566986 1.58211,1.721833 7.40688,9.849384 8.58935,11.985098 0.24171,0.436562 0.64421,1.110704 0.89445,1.498092 0.25024,0.387388 0.84606,1.399419 1.32405,2.248958 0.47799,0.849539 0.98429,1.72321 1.12511,1.941492 0.14082,0.218281 0.37474,0.694531 0.51983,1.058333 0.14509,0.363802 0.37799,0.840052 0.51756,1.058333 0.13957,0.218282 0.56088,1.051719 0.93625,1.852084 0.37536,0.800364 0.79789,1.633802 0.93894,1.852083 0.14105,0.218281 0.38737,0.694531 0.54738,1.058333 0.16001,0.363803 0.39755,0.840053 0.52787,1.058334 0.13033,0.218281 0.35566,0.694531 0.50075,1.058333 0.14509,0.363802 0.38368,0.840052 0.53022,1.058334 0.14653,0.218281 0.33286,0.575468 0.41405,0.79375 0.18398,0.494616 0.80854,1.866909 2.16753,4.762499 1.93174,4.11596 2.17939,4.68587 2.17939,5.01524 0,0.17989 0.17698,0.6431 0.39328,1.02936 0.43972,0.78521 1.06989,2.48217 1.5872,4.27414 0.18905,0.65485 0.4647,1.48828 0.61255,1.85209 0.31796,0.78233 1.10555,3.32022 1.88849,6.08541 0.30902,1.09141 0.78248,2.75828 1.05213,3.70417 0.76158,2.67146 1.34077,5.26219 1.59707,7.14375 0.30948,2.27195 0.73328,4.83567 1.33397,8.06979 0.27029,1.45521 0.56002,3.68021 0.64385,4.94444 0.0838,1.26423 0.26941,2.60628 0.41238,2.98233 0.77753,2.04505 0.99344,25.24961 0.27953,30.04094 -0.11926,0.80037 -0.35454,2.52677 -0.52285,3.83646 -0.70456,5.48236 -1.54693,10.79324 -1.83105,11.54425 -0.13037,0.34462 -0.32088,1.28143 -0.42335,2.08179 -0.10246,0.80037 -0.346,2.05052 -0.54119,2.77813 -0.1952,0.7276 -0.61572,2.33494 -0.93449,3.57187 -0.31878,1.23693 -0.79162,2.96334 -1.05077,3.83646 -0.25914,0.87313 -0.73528,2.48047 -1.05807,3.57188 -0.57366,1.93961 -1.45327,4.62253 -2.38549,7.27604 -1.70253,4.84612 -8.11249,17.94528 -11.96725,24.45583 -0.69122,1.16745 -1.25677,2.23593 -1.25677,2.3744 0,0.13847 -0.16316,0.41492 -0.36257,0.61433 -0.19941,0.19941 -0.55811,0.71393 -0.79711,1.14338 -0.57634,1.03558 -2.26127,3.60326 -4.54286,6.92291 -0.73756,1.07311 -5.43631,6.99695 -5.83129,7.35165 -0.16205,0.14552 -0.87815,0.9797 -1.59135,1.85374 -2.21364,2.71289 -2.95297,3.49506 -9.89357,10.46689 -3.71078,3.72747 -7.22313,7.11964 -7.80521,7.53814 -0.58208,0.4185 -1.49113,1.12211 -2.0201,1.56357 -0.52897,0.44146 -1.83866,1.43563 -2.91041,2.20926 -4.88973,3.52957 -6.32988,4.54652 -6.43853,4.54652 -0.10556,0 -1.71421,1.01632 -2.40213,1.51763 -0.15258,0.11119 -0.58933,0.38076 -0.97056,0.59904 -0.38124,0.21828 -1.86374,1.08743 -3.29446,1.93145 -3.20599,1.89129 -3.24375,1.9125 -4.05652,2.27923 -0.3638,0.16414 -1.37583,0.7153 -2.24896,1.22479 -1.77254,1.03431 -8.27758,4.24226 -10.31875,5.08866 -1.28198,0.5316 -2.50151,0.99008 -5.82083,2.18835 -0.87313,0.31519 -1.94469,0.73138 -2.38125,0.92485 -0.43656,0.19348 -1.21047,0.43326 -1.71979,0.53284 -0.50933,0.0996 -1.2237,0.3294 -1.5875,0.51071 -0.3638,0.18131 -1.10292,0.40954 -1.64247,0.50719 -0.53956,0.0976 -1.31347,0.35096 -1.71979,0.5629 -0.40633,0.21195 -1.07003,0.38609 -1.47489,0.38698 -0.40485,9e-4 -1.13774,0.16945 -1.62863,0.37456 -0.4909,0.20511 -1.5884,0.51567 -2.4389,0.69013 -0.8505,0.17447 -1.66543,0.41097 -1.81095,0.52555 -0.14552,0.11459 -1.14165,0.34304 -2.21362,0.50767 -1.07197,0.16463 -2.14353,0.40064 -2.38125,0.52445 -0.23772,0.12381 -1.60936,0.36174 -3.04809,0.52874 -1.43873,0.16699 -2.7254,0.37131 -2.85927,0.45405 -0.13387,0.0827 -1.81423,0.30931 -3.73413,0.50351 -1.91989,0.19419 -4.56228,0.47436 -5.87197,0.62259 -3.16436,0.35815 -10.14486,0.46414 -18.27302,0.27746 z m 20.91885,-8.25036 c 1.45521,-0.22935 3.5388,-0.55063 4.63021,-0.71396 6.40193,-0.95804 8.00558,-1.25778 11.50938,-2.15124 0.58208,-0.14843 1.71317,-0.4307 2.51354,-0.62727 0.80036,-0.19656 1.81239,-0.48302 2.24896,-0.63657 0.88233,-0.31035 2.81725,-0.92532 4.6302,-1.47162 0.65485,-0.19732 2.38125,-0.80428 3.83646,-1.34879 1.45521,-0.54452 3.18162,-1.1878 3.83646,-1.42953 0.65484,-0.24172 1.42875,-0.56743 1.71979,-0.72379 0.29104,-0.15637 1.00542,-0.43455 1.5875,-0.61819 0.58209,-0.18364 1.1774,-0.42286 1.32292,-0.53161 0.14552,-0.10874 0.56224,-0.28621 0.92604,-0.39438 1.4499,-0.43107 10.7994,-5.01349 11.1125,-5.4465 0.0728,-0.10063 0.54901,-0.37812 1.05833,-0.61665 0.91294,-0.42755 1.21067,-0.59791 2.77813,-1.58959 1.73525,-1.09785 2.9169,-1.8779 3.04271,-2.00861 0.0728,-0.0756 0.99567,-0.73078 2.0509,-1.45596 3.31085,-2.27526 9.33657,-6.76984 10.0496,-7.49598 0.25696,-0.26168 1.71444,-1.47694 3.23883,-2.70056 3.36041,-2.69739 9.72776,-8.98881 12.5675,-12.41762 1.14344,-1.38063 2.20804,-2.65642 2.36576,-2.83509 0.57358,-0.64971 0.91978,-1.09494 3.36598,-4.32876 1.36898,-1.80977 2.84102,-3.82627 3.27119,-4.48111 0.43017,-0.65485 1.17161,-1.67914 1.64764,-2.27621 0.47604,-0.59707 0.86552,-1.1677 0.86552,-1.26807 0,-0.10037 0.47625,-0.82716 1.05833,-1.6151 0.58208,-0.78794 1.05833,-1.49845 1.05833,-1.57891 0,-0.0805 0.42213,-0.74687 0.93806,-1.48089 0.51593,-0.73403 1.05784,-1.59601 1.20424,-1.91552 0.1464,-0.31951 0.54639,-1.05718 0.88887,-1.63926 2.04779,-3.4804 5.9674,-11.3897 7.53938,-15.21354 0.32903,-0.80037 0.82369,-1.96441 1.09926,-2.58677 0.27556,-0.62236 0.50507,-1.2772 0.51,-1.45521 0.005,-0.17801 0.23903,-0.7999 0.52019,-1.38198 0.28117,-0.58209 0.51599,-1.23693 0.52182,-1.45521 0.006,-0.21828 0.17725,-0.71628 0.38092,-1.10666 0.20367,-0.39038 0.45695,-1.10428 0.56285,-1.58644 0.1059,-0.48216 0.34681,-1.23432 0.53534,-1.67147 0.34716,-0.80493 0.93152,-2.76949 1.96782,-6.61564 0.31367,-1.16417 0.78569,-2.89057 1.04892,-3.83646 0.49016,-1.76128 0.88401,-3.51617 1.36577,-6.08542 0.15007,-0.80036 0.44578,-2.20883 0.65713,-3.12993 0.21135,-0.9211 0.49423,-2.8261 0.62862,-4.23333 0.1344,-1.40724 0.36597,-3.15392 0.5146,-3.88153 1.05885,-5.18322 0.99062,-29.2317 -0.0995,-35.05729 -0.20422,-1.09141 -0.44158,-2.81781 -0.52747,-3.83646 -0.0859,-1.01864 -0.3431,-2.74505 -0.57159,-3.83646 -1.46684,-7.00669 -1.85965,-8.6889 -3.05828,-13.09687 -0.60566,-2.22734 -2.25529,-7.47443 -2.86979,-9.12813 -0.24333,-0.65484 -0.71118,-2.02406 -1.03966,-3.04271 -0.68638,-2.1285 -1.47827,-4.26958 -2.17734,-5.88696 -1.27732,-2.95522 -1.59994,-3.66722 -1.8283,-4.0349 -0.13557,-0.21828 -0.37144,-0.69453 -0.52415,-1.05833 -0.38527,-0.91785 -1.14926,-2.413037 -2.50106,-4.894798 -0.63411,-1.164167 -1.28783,-2.414323 -1.4527,-2.778125 -0.46935,-1.035691 -4.16587,-7.012692 -6.05443,-9.789583 -0.94021,-1.382448 -2.47864,-3.644636 -3.41875,-5.027084 -4.05228,-5.958968 -7.63212,-10.22867 -13.42094,-16.007292 -3.81976,-3.813029 -6.73809,-6.514378 -8.86091,-8.202084 -0.54911,-0.436562 -2.49095,-1.984375 -4.31519,-3.439583 -1.82424,-1.455208 -3.92866,-3.062552 -4.67649,-3.571875 -0.74783,-0.509323 -1.50097,-1.054381 -1.67364,-1.21124 -0.29267,-0.265871 -4.74547,-3.293317 -5.8848,-4.001062 -5.13643,-3.190712 -12.59223,-7.028915 -18.37051,-9.457036 -0.94588,-0.397475 -2.07698,-0.874586 -2.51354,-1.060245 -0.43656,-0.185659 -1.50812,-0.605668 -2.38125,-0.933353 -0.87312,-0.327685 -1.96246,-0.753058 -2.42075,-0.945273 -0.45828,-0.192215 -1.29172,-0.433551 -1.85208,-0.536302 -0.56036,-0.102751 -1.25369,-0.34852 -1.54073,-0.546155 -0.28704,-0.197634 -0.70376,-0.35761 -0.92604,-0.355501 -0.22228,0.0021 -1.23759,-0.249936 -2.25623,-0.560098 -3.35438,-1.021355 -5.25893,-1.535801 -7.80521,-2.108296 -1.38245,-0.310824 -3.45894,-0.790953 -4.61444,-1.066954 -1.15549,-0.276 -2.38732,-0.501819 -2.7374,-0.501819 -0.35008,0 -1.25015,-0.170672 -2.00015,-0.379272 -0.75,-0.2086 -2.97098,-0.5129 -4.93551,-0.676222 -1.96453,-0.163322 -4.52438,-0.400897 -5.68854,-0.527945 -2.9333,-0.320115 -16.39157,-0.311731 -19.44688,0.01212 -1.38245,0.146532 -3.70416,0.373068 -5.15937,0.503413 -1.45521,0.130346 -3.65787,0.417096 -4.89479,0.637223 -1.23693,0.220127 -3.0824,0.5195 -4.10105,0.665272 -2.51142,0.359395 -5.92495,1.039692 -6.26196,1.247974 -0.15139,0.09357 -1.12611,0.39891 -2.16602,0.678539 -3.67414,0.987954 -4.55559,1.256648 -6.38868,1.947467 -1.01865,0.383888 -2.38402,0.868767 -3.03416,1.07751 -0.65014,0.208743 -1.29903,0.49649 -1.44198,0.639438 -0.14295,0.142948 -0.45983,0.259905 -0.70418,0.259905 -0.39071,0 -1.46434,0.426661 -4.34468,1.726567 -0.43657,0.197022 -1.50813,0.616208 -2.38125,0.931523 -1.95766,0.706977 -2.38977,0.895866 -6.35,2.775763 -1.74625,0.828934 -3.41313,1.615129 -3.70417,1.747099 -0.29104,0.131971 -1.00542,0.526594 -1.5875,0.87694 -0.58208,0.350347 -1.41552,0.823522 -1.85208,1.051499 -0.43657,0.227978 -1.15094,0.652978 -1.5875,0.944444 -0.43657,0.291467 -1.0942,0.678668 -1.4614,0.860448 -2.11722,1.048094 -12.67401,8.482344 -15.15369,10.671455 -0.17866,0.157729 -1.39492,1.177693 -2.7028,2.266586 -2.95134,2.457192 -10.7729,10.174469 -13.36757,13.189343 -1.06453,1.236928 -2.01319,2.30849 -2.10813,2.38125 -0.16297,0.124904 -4.05452,5.08018 -4.88297,6.217709 -0.21197,0.291042 -0.66695,0.886354 -1.01107,1.322917 -1.28155,1.62579 -7.31724,10.954017 -8.98773,13.890625 -3.75917,6.608356 -8.09607,15.809468 -9.97682,21.166668 -0.1788,0.50932 -0.56542,1.52135 -0.85915,2.24895 -0.29373,0.72761 -0.68656,1.8587 -0.87295,2.51355 -0.18638,0.65484 -0.46115,1.48828 -0.61058,1.85208 -0.24885,0.60583 -1.10105,3.43197 -2.03447,6.74687 -0.66245,2.35263 -1.24754,4.98933 -1.46813,6.6161 -0.1185,0.87396 -0.33546,1.90466 -0.48213,2.29043 -0.14668,0.38578 -0.34679,1.45666 -0.44469,2.37974 -0.0979,0.92307 -0.33416,2.45222 -0.52501,3.39811 -0.19085,0.94589 -0.422,2.61276 -0.51367,3.70417 -0.0917,1.0914 -0.3686,3.175 -0.6154,4.63021 -0.652,3.84438 -0.64699,27.22821 0.007,30.42708 0.23784,1.16417 0.50549,2.89057 0.59478,3.83646 0.0893,0.94588 0.3232,2.3151 0.51978,3.04271 0.19659,0.7276 0.4314,1.85869 0.5218,2.51354 0.31153,2.25649 1.9331,9.8293 2.40786,11.24479 0.19523,0.58208 0.42996,1.47505 0.52161,1.98438 0.0917,0.50932 0.32502,1.34276 0.51857,1.85208 0.19356,0.50932 0.67412,1.9976 1.06793,3.30729 0.3938,1.30969 0.8839,2.77224 1.08911,3.25012 0.20521,0.47788 0.37331,1.01366 0.37356,1.19063 4.5e-4,0.31504 2.77042,7.35676 3.61318,9.18529 0.23474,0.50933 0.63738,1.40229 0.89475,1.98438 0.56855,1.28587 2.8426,5.93092 3.17351,6.48229 0.31994,0.5331 2.91448,5.09664 3.50328,6.16192 0.25825,0.46725 0.70112,1.20673 0.98414,1.64329 0.28303,0.43656 0.71319,1.15094 0.95593,1.5875 0.43095,0.77508 2.11128,3.38835 5.61418,8.73125 4.83161,7.36956 10.2336,13.25563 21.58574,23.52008 2.56339,2.31778 8.35255,7.11117 9.4165,7.7968 0.3638,0.23444 0.79434,0.54686 0.95674,0.69427 0.16241,0.14741 1.33075,0.92286 2.59632,1.72322 1.26557,0.80037 3.07677,1.96123 4.0249,2.57969 0.94813,0.61846 1.78308,1.12448 1.85544,1.12448 0.0724,0 0.94101,0.47274 1.93033,1.05053 1.8138,1.05932 8.12775,4.26638 10.3321,5.24801 0.65485,0.29162 2.50032,1.08429 4.10105,1.76149 1.60073,0.67721 3.2676,1.39066 3.70416,1.58546 2.3634,1.05456 7.30843,2.71067 11.90625,3.98745 0.72761,0.20205 2.15636,0.60382 3.175,0.89282 1.01865,0.28901 2.43315,0.60137 3.14334,0.69415 0.71019,0.0928 1.54362,0.27818 1.85208,0.41201 0.64575,0.28016 4.49196,0.90471 8.89521,1.44441 1.67349,0.20511 3.34036,0.45342 3.70417,0.55179 1.65673,0.44797 5.42761,0.56928 15.875,0.51072 8.69016,-0.0487 11.84588,-0.15777 13.89062,-0.48004 z m -103.1543,-90.55695 c -3.00302,-0.66385 -6.0925,-2.64382 -8.10758,-5.19596 -0.79784,-1.01049 -1.56968,-2.11145 -1.7152,-2.44659 -0.14553,-0.33514 -0.40276,-0.77551 -0.57164,-0.97859 -0.16888,-0.20309 -0.38895,-0.8455 -0.48905,-1.42759 -0.1001,-0.58208 -0.34888,-1.64549 -0.55284,-2.36312 -0.96149,-3.38293 0.11717,-8.39762 2.59339,-12.05667 0.34468,-0.50932 1.51537,-2.44786 2.60154,-4.30786 2.40562,-4.11949 2.17779,-3.73439 4.88665,-8.25985 1.21949,-2.03729 3.29964,-5.54963 4.62255,-7.80521 1.32291,-2.25557 2.54535,-4.33916 2.71653,-4.6302 0.17119,-0.29105 0.50572,-0.82683 0.7434,-1.19063 0.23769,-0.3638 2.2493,-3.81661 4.47025,-7.67292 2.22095,-3.8563 4.43304,-7.61304 4.91575,-8.34832 0.48272,-0.73527 1.31662,-2.16402 1.85312,-3.175 0.5365,-1.01097 1.1708,-2.1565 1.40957,-2.54561 0.23876,-0.38911 2.75583,-4.71447 5.59348,-9.61191 2.83766,-4.89744 5.36774,-9.25228 5.6224,-9.67742 0.78168,-1.30497 1.28267,-2.15553 4.43177,-7.52414 1.67349,-2.85297 3.28083,-5.58084 3.57188,-6.06193 1.48458,-2.45402 2.68462,-4.49429 3.0174,-5.1301 0.20437,-0.39046 0.44904,-0.76946 0.54371,-0.84222 0.16229,-0.12473 2.35234,-3.906101 2.7583,-4.762506 0.10347,-0.218281 0.47565,-0.873125 0.82708,-1.455209 0.35143,-0.582083 0.90718,-1.534583 1.23501,-2.116666 0.32783,-0.582084 0.71923,-1.262379 0.86977,-1.511768 0.15055,-0.249388 1.20285,-2.035326 2.33845,-3.96875 1.1356,-1.933424 2.83121,-4.705941 3.76801,-6.161149 0.9368,-1.455209 1.78411,-2.824427 1.88289,-3.042709 0.14583,-0.322218 1.41206,-2.523215 2.73987,-4.7625 0.12943,-0.218281 0.96087,-1.706562 1.84763,-3.307292 0.88677,-1.600729 1.72177,-3.08901 1.85556,-3.307291 0.1338,-0.218282 0.60136,-1.078918 1.03902,-1.912526 0.43766,-0.833608 1.11684,-2.024233 1.50929,-2.645833 0.39245,-0.621601 1.06755,-1.785027 1.50023,-2.585391 0.43268,-0.800365 0.90436,-1.605454 1.04818,-1.789087 0.25526,-0.325919 0.77671,-1.238638 1.62318,-2.841122 0.2306,-0.436562 0.65429,-1.150937 0.94153,-1.5875 0.28725,-0.436562 0.7671,-1.210469 1.06635,-1.719792 0.29924,-0.509323 0.77758,-1.283229 1.06298,-1.719791 0.28539,-0.436563 0.66689,-1.091407 0.84777,-1.455209 0.56121,-1.128764 2.14061,-3.321666 3.26399,-4.531863 3.80103,-4.094793 10.29937,-6.102176 15.67296,-4.841485 0.9758,0.228929 2.13136,0.601587 2.56792,0.82813 1.70043,0.882394 4.28883,2.754906 5.305,3.837773 1.00661,1.072676 3.4244,4.566816 4.51618,6.52669 0.27366,0.491261 0.65294,1.146105 0.84283,1.455208 2.26513,3.687131 4.20989,6.958356 6.62595,11.145339 1.59546,2.764896 3.15071,5.443803 3.45612,5.953125 0.30541,0.509323 0.74152,1.28323 0.96914,1.719792 0.22762,0.436563 0.70247,1.27 1.05523,1.852084 0.35276,0.582083 0.82567,1.41552 1.05091,1.852083 0.22524,0.436562 0.69416,1.27 1.04205,1.852083 0.34788,0.582084 0.81905,1.415521 1.04702,1.852084 0.22798,0.436562 0.65313,1.150937 0.94478,1.5875 0.29165,0.436562 0.71238,1.150937 0.93496,1.5875 0.22257,0.436562 0.92934,1.627187 1.57059,2.645833 0.64124,1.018646 1.45734,2.400382 1.81355,3.070526 1.16516,2.192067 3.94462,6.974613 4.28931,7.380516 0.18536,0.218281 0.73531,1.151933 1.22212,2.074781 0.90485,1.715357 1.1037,2.061953 1.84557,3.216885 0.23369,0.363807 1.4824,2.487357 2.77492,4.719017 1.29251,2.23165 2.52862,4.33454 2.7469,4.67309 0.21828,0.33855 0.78796,1.31062 1.26595,2.16015 0.47799,0.84953 0.97917,1.7232 1.11374,1.94149 0.58466,0.94836 2.84926,4.95401 4.03813,7.14266 0.43443,0.79977 1.01361,1.73856 1.28707,2.0862 0.27345,0.34765 0.49719,0.7278 0.49719,0.84479 0,0.23759 4.46482,8.05859 5.42647,9.50551 0.3385,0.50933 0.95267,1.53585 1.36481,2.28116 0.64743,1.17081 3.46101,5.96913 5.30353,9.04474 0.32199,0.53748 0.85366,1.45348 1.18148,2.03556 0.32783,0.58209 0.71923,1.26495 0.86978,1.51748 0.68061,1.14165 6.39731,11.01998 6.87904,11.88682 0.29614,0.53288 1.21064,2.14022 2.03222,3.57187 0.82158,1.43165 1.72759,3.01972 2.01337,3.52904 0.9319,1.66091 1.71896,3.02918 2.15273,3.74242 0.23404,0.38485 1.37803,2.3271 2.5422,4.31612 2.46454,4.21076 2.30764,3.94709 3.83921,6.45181 0.65333,1.06845 1.52678,2.55673 1.941,3.30729 0.41422,0.75056 1.13865,1.95997 1.60983,2.68757 1.45495,2.24673 3.24398,6.26664 3.5773,8.03809 0.44643,2.37261 -0.0858,6.33562 -1.14121,8.49837 -0.81983,1.67991 -2.38165,3.9774 -3.25985,4.79536 -0.88861,0.82767 -3.43249,2.61297 -3.72322,2.61297 -0.11279,0 -0.65493,0.24112 -1.20477,0.53581 -2.47571,1.3269 1.28782,1.27438 -90.69235,1.26567 -69.38441,-0.007 -86.13343,-0.074 -87.38983,-0.35171 z m 90.87369,-17.82254 c 3.87242,-1.10741 6.64567,-3.73379 7.90958,-7.49067 0.50983,-1.51543 0.57841,-2.16394 0.47567,-4.49792 -0.0815,-1.85145 -0.26071,-2.98206 -0.5581,-3.52093 -0.24094,-0.43656 -0.4388,-0.93729 -0.4397,-1.11273 -0.005,-1.04861 -2.72067,-3.88986 -4.57517,-4.78737 -2.6599,-1.2873 -3.31081,-1.44829 -5.80226,-1.43509 -6.06232,0.0321 -10.16591,3.48026 -11.49965,9.66283 -0.42039,1.9487 -0.4192,2.16868 0.0214,3.96875 0.90014,3.67769 2.37455,5.94413 4.98364,7.66079 2.97614,1.95814 6.21304,2.48793 9.48462,1.55234 z m 4.1486,-32.77358 c 0.32044,-0.87467 0.77072,-4.89447 1.13362,-10.12032 0.14652,-2.11005 0.43467,-5.08661 0.64031,-6.61458 0.20565,-1.52797 0.44966,-4.20687 0.54225,-5.95312 0.0926,-1.74625 0.28017,-3.88938 0.41683,-4.7625 0.13666,-0.87313 0.36642,-3.48249 0.51057,-5.79858 0.14415,-2.31609 0.38017,-4.95021 0.52449,-5.8536 0.14431,-0.90339 0.38328,-4.00903 0.53103,-6.90143 0.14775,-2.89239 0.38224,-6.21139 0.52109,-7.37555 0.45691,-3.8311 0.88339,-19.322639 0.54913,-19.947201 -0.29712,-0.555183 -0.3602,-0.558012 -12.44096,-0.558012 h -12.14232 l -0.52624,0.669008 c -0.47605,0.605196 -0.51426,0.964817 -0.40063,3.770312 0.0691,1.705718 0.24227,4.113336 0.38485,5.350264 0.14257,1.236927 0.36863,4.749269 0.50236,7.805209 0.13372,3.05594 0.42259,7.40171 0.64193,9.65728 0.83735,8.61089 0.96362,10.07557 1.32828,15.40721 0.20634,3.01693 0.43937,5.58921 0.51784,5.71618 0.0785,0.12697 0.32551,2.54014 0.54898,5.36259 0.22346,2.82245 0.51834,5.96517 0.65528,6.98382 0.13693,1.01864 0.31825,3.0427 0.40291,4.49791 0.23716,4.07623 0.71212,8.41644 0.97719,8.92969 0.21839,0.42286 0.83222,0.46302 7.07689,0.46302 h 6.83776 z"
       id="path2"
       transform="translate(-86.515903,-309.46254)" /><text
       xml:space="preserve"
       style="font-size:46.4172px;line-height:1;writing-mode:lr-tb;direction:ltr;display:inline;fill:#ee2733;fill-opacity:1;stroke-width:17.5435"
       x="420.48215"
       y="256.79321"
       id="text14"
       transform="matrix(0.98202954,0,0,1.0182993,-86.515903,-309.46254)"><tspan
         id="tspan14"
         style="font-style:normal;font-variant:normal;font-weight:bold;font-stretch:normal;line-height:1;font-family:'Avenir Next';-inkscape-font-specification:'Avenir Next Bold';fill:#ee2733;fill-opacity:1;stroke-width:17.5435"
         x="420.48215"
         y="256.79321">ALERT</tspan></text></g></svg>
