<?xml version="1.0" encoding="UTF-8" standalone="no"?>
<!-- Created with Inkscape (http://www.inkscape.org/) -->

<svg
   width="135.46666mm"
   height="135.46666mm"
   viewBox="0 0 135.46666 135.46666"
   version="1.1"
   id="svg1"
   xml:space="preserve"
   sodipodi:docname="info.svg"
   inkscape:version="1.4.3 (0d15f75, 2025-12-25)"
   xmlns:inkscape="http://www.inkscape.org/namespaces/inkscape"
   xmlns:sodipodi="http://sodipodi.sourceforge.net/DTD/sodipodi-0.dtd"
   xmlns="http://www.w3.org/2000/svg"
   xmlns:svg="http://www.w3.org/2000/svg"><sodipodi:namedview
     id="namedview1"
     pagecolor="#ffffff"
     bordercolor="#000000"
     borderopacity="0.25"
     inkscape:showpageshadow="2"
     inkscape:pageopacity="0.0"
     inkscape:pagecheckerboard="0"
     inkscape:deskcolor="#d1d1d1"
     inkscape:document-units="mm"
     inkscape:zoom="0.62941912"
     inkscape:cx="248.64196"
     inkscape:cy="217.66101"
     inkscape:window-width="3200"
     inkscape:window-height="1747"
     inkscape:window-x="3200"
     inkscape:window-y="88"
     inkscape:window-maximized="0"
     inkscape:current-layer="svg1" /><defs
     id="defs1" /><g
     id="layer1"
     transform="translate(-289.38244,-75.74511)"><g
       id="g26"
       transform="translate(-324.87026,539.23825)"><g
         id="g25"
         transform="translate(276.21759,214.69827)"
         style="display:inline;stroke:#000000;stroke-opacity:1"><g
           style="clip-rule:evenodd;fill-rule:evenodd;image-rendering:optimizeQuality;shape-rendering:geometricPrecision;text-rendering:geometricPrecision;stroke:#000000;stroke-opacity:1"
           id="g1"
           transform="matrix(0.26458333,0,0,0.26458333,338.03511,-678.19141)"><path
             fill-rule="nonzero"
             d="M 256,0 C 326.69,0 390.69,28.66 437.02,74.98 483.34,121.3 512,185.31 512,256 512,326.69 483.34,390.7 437.02,437.02 390.69,483.34 326.69,512 256,512 185.31,512 121.31,483.34 74.98,437.02 28.66,390.69 0,326.69 0,256 0,185.31 28.66,121.31 74.98,74.98 121.31,28.66 185.31,0 256,0 Z m -9.96,161.03 c 0,-4.28 0.76,-8.26 2.27,-11.91 1.5,-3.63 3.77,-6.94 6.79,-9.91 3,-2.95 6.29,-5.2 9.84,-6.7 3.57,-1.5 7.41,-2.28 11.52,-2.28 4.12,0 7.96,0.78 11.49,2.27 3.54,1.51 6.78,3.76 9.75,6.73 2.95,2.97 5.16,6.26 6.64,9.91 1.49,3.63 2.22,7.61 2.22,11.89 0,4.17 -0.73,8.08 -2.21,11.69 -1.48,3.6 -3.68,6.94 -6.65,9.97 -2.94,3.03 -6.18,5.32 -9.72,6.84 -3.54,1.51 -7.38,2.29 -11.52,2.29 -4.22,0 -8.14,-0.76 -11.75,-2.26 -3.58,-1.51 -6.86,-3.79 -9.83,-6.79 -2.94,-3.02 -5.16,-6.34 -6.63,-9.97 -1.48,-3.62 -2.21,-7.54 -2.21,-11.77 z m 13.4,178.16 c -1.11,3.97 -3.35,11.76 3.3,11.76 1.44,0 3.27,-0.81 5.46,-2.4 2.37,-1.71 5.09,-4.31 8.13,-7.75 3.09,-3.5 6.32,-7.65 9.67,-12.42 3.33,-4.76 6.84,-10.22 10.49,-16.31 0.37,-0.65 1.23,-0.87 1.89,-0.48 l 12.36,9.18 c 0.6,0.43 0.73,1.25 0.35,1.86 -5.69,9.88 -11.44,18.51 -17.26,25.88 -5.85,7.41 -11.79,13.57 -17.8,18.43 l -0.1,0.06 c -6.02,4.88 -12.19,8.55 -18.51,11.01 -17.58,6.81 -45.36,5.7 -53.32,-14.83 -5.02,-12.96 -0.9,-27.69 3.06,-40.37 l 19.96,-60.44 c 1.28,-4.58 2.89,-9.62 3.47,-14.33 0.97,-7.87 -2.49,-12.96 -11.06,-12.96 h -17.45 c -0.76,0 -1.38,-0.62 -1.38,-1.38 l 0.08,-0.48 4.58,-16.68 c 0.16,-0.62 0.73,-1.04 1.35,-1.02 l 89.12,-2.79 c 0.76,-0.03 1.41,0.57 1.44,1.33 l -0.07,0.43 z M 417.74,94.26 c -41.39,-41.39 -98.58,-67 -161.74,-67 -63.16,0 -120.35,25.61 -161.74,67 -41.39,41.39 -67,98.58 -67,161.74 0,63.16 25.61,120.35 67,161.74 41.39,41.39 98.58,67 161.74,67 63.16,0 120.35,-25.61 161.74,-67 41.39,-41.39 67,-98.58 67,-161.74 0,-63.16 -25.61,-120.35 -67,-161.74 z"
             id="path1"
             style="stroke:#000000;stroke-opacity:1;fill:#3576b5;fill-opacity:0.94901961;stroke-width:3.19100004;stroke-dasharray:none" /></g></g></g></g></svg>
