<?xml version="1.0" encoding="UTF-8" standalone="no"?>
<!-- Created with Inkscape (http://www.inkscape.org/) -->

<svg
   width="285.10886mm"
   height="296.04333mm"
   viewBox="0 0 285.10886 296.04333"
   version="1.1"
   id="svg1"
   xmlns="http://www.w3.org/2000/svg"
   xmlns:svg="http://www.w3.org/2000/svg">
  <defs
     id="defs1" />
  <g
     id="layer1"
     transform="translate(41.804182,-0.52916085)">
    <g
       id="g26"
       transform="translate(-324.87026,539.23825)">
      <g
         id="g25"
         transform="translate(276.21759,214.69827)"
         style="display:inline">
        <path
           style="display:inline;fill:#ffd138;fill-opacity:1;stroke-width:1.2"
           d="m -142.48062,-171.34708 117.894775,0.0551 c 11.2576,0.017 13.32691,-7.93364 10.56822,-13.53648 l -59.15895,-102.76598 c -3.55555,-5.96995 -4.95161,-8.73125 -10.511182,-8.74694 -5.337725,-0.0151 -7.012768,3.27876 -10.520496,9.4101 l -56.748447,98.23438 c -1.25008,2.21965 -2.54861,3.98873 -3.05302,5.67325 -0.75137,2.50925 -0.0302,4.65013 0.5238,6.30715 0.62813,1.87886 2.5944,3.99897 5.23962,5.0499 1.19753,0.47577 3.3724,0.14563 5.76568,0.31952 z"
           id="path25"
           transform="matrix(1.4415403,0,0,1.4337521,270.54884,-309.56518)" />
        <path
           style="display:inline;fill:#000000"
           d="m 31.071314,-200.87334 c -2.377568,-0.95487 -3.240949,-3.5651 -3.264646,-3.57975 -0.486329,-0.30057 -0.119793,-2.76651 0.646155,-4.34713 0.387847,-0.80036 1.181768,-2.2113 1.764269,-3.13542 18.988929,-34.82943 40.188828,-67.89863 59.663048,-103.4031 0.851295,-1.55204 3.165339,-3.2154 5.084685,-3.24878 1.136785,-0.0198 3.595265,0.81887 4.074318,1.64693 l 61.926737,107.04293 c 0.54068,0.93459 1.01447,1.8989 1.01447,2.16559 0,0.2667 0.11757,0.79415 0.26128,1.17213 0.60486,1.59091 -1.02513,4.59136 -3.00451,5.53064 -0.83223,0.39491 -6.23299,0.42976 -64.23634,0.41439 -37.556213,-0.01 -63.572603,-0.11511 -63.929466,-0.25843 z m 125.951346,-4.98002 c -27.83168,-50.45988 -16.38598,-30.6153 -61.188144,-106.62884 -0.370079,-0.62789 -0.192672,-0.39438 -0.428161,-0.58982 -0.369985,-0.30706 -0.614703,-0.32228 -1.037539,0.40889 l -60.446798,104.52437 c -0.581205,1.00502 0,0 -1.09873,2.39696 -0.217682,0.47489 124.392082,0.23784 124.199372,-0.11156 z m -63.833977,-22.77703 c -1.136601,-0.60412 -1.939116,-1.47907 -2.317907,-2.52712 -0.321417,-0.88931 -0.504281,-3.55067 -0.854447,-12.43542 -0.131911,-3.34698 -0.364696,-8.64526 -0.5173,-11.77396 -0.152603,-3.12869 -0.394952,-8.65163 -0.538553,-12.27319 -0.143601,-3.62156 -0.322177,-7.1339 -0.396836,-7.80521 -0.07466,-0.6713 -0.193503,-3.15048 -0.264097,-5.50929 -0.116742,-3.90079 -0.07938,-4.40338 0.413031,-5.55625 0.991762,-2.32197 2.819186,-3.76499 5.404043,-4.26729 1.402368,-0.27252 1.75505,-0.24831 2.997201,0.20571 2.244751,0.82048 3.663012,2.20536 4.500922,4.39496 0.53122,1.38816 0.55006,1.70402 0.31974,5.36105 -0.41497,6.58901 -1.5515,31.05772 -1.86415,40.13389 -0.27197,7.8954 -0.407429,9.15193 -1.116099,10.35303 -0.636873,1.07942 -2.693066,2.22018 -3.970815,2.20298 -0.47778,-0.006 -1.28541,-0.23318 -1.794733,-0.50389 z"
           id="path15"
           transform="matrix(1.4415403,0,0,1.4337521,13.026603,-272.93358)" />
        <circle
           style="display:inline;fill:#000000;fill-opacity:1;stroke-width:1.20966"
           id="path26"
           cx="94.958359"
           cy="-217.72081"
           r="6.2450891"
           transform="matrix(1.4415403,0,0,1.4337521,13.026603,-272.93358)" />
        <text
           xml:space="preserve"
           style="font-style:normal;font-variant:normal;font-weight:600;font-stretch:normal;font-size:38.5626px;line-height:0.9;font-family:'Avenir Next';-inkscape-font-specification:'Avenir Next Semi-Bold';writing-mode:lr-tb;direction:ltr;display:inline;fill:#140019;fill-opacity:1;stroke-width:26.6347"
           x="79.082451"
           y="-436.43878"
           id="text14-1"
           transform="matrix(0.85733639,0,0,1.1664033,1.6666667e-6,4.3749995e-7)"><tspan
             id="tspan14-9"
             style="font-style:normal;font-variant:normal;font-weight:bold;font-stretch:normal;font-size:38.5626px;line-height:0.9;font-family:'Avenir Next';-inkscape-font-specification:'Avenir Next Bold';fill:#140019;fill-opacity:1;stroke-width:26.6347"
             x="79.082451"
             y="-436.43878">WARNING</tspan></text>
        <path
           style="display:inline;fill:#ffd138;fill-opacity:1"
           d="m 143.46059,-457.4547 c -3.64724,-0.0838 -6.74939,-0.22526 -6.89368,-0.31444 -0.14428,-0.0892 -2.19994,-0.34682 -4.56813,-0.57256 -2.36819,-0.22573 -4.40846,-0.47388 -4.53394,-0.55143 -0.12548,-0.0775 -1.33649,-0.31503 -2.69115,-0.52774 -4.08121,-0.64084 -7.75805,-1.34251 -8.08108,-1.54215 -0.16743,-0.10348 -0.99592,-0.31544 -1.84109,-0.47102 -0.84516,-0.15558 -1.65717,-0.38201 -1.80446,-0.50318 -0.14729,-0.12117 -0.98073,-0.40117 -1.85208,-0.62223 -2.55749,-0.64881 -4.45664,-1.2017 -5.02387,-1.46257 -0.53057,-0.24401 -2.14055,-0.79138 -4.36563,-1.48423 -2.037519,-0.63446 -4.165049,-1.46501 -6.511269,-2.54188 -0.59802,-0.27449 -1.17529,-0.49906 -1.28281,-0.49906 -0.19763,0 -4.4373,-1.94626 -5.1705,-2.37356 -0.21828,-0.12722 -1.64703,-0.86038 -3.175,-1.62926 -1.52797,-0.76888 -2.93546,-1.55201 -3.12776,-1.74028 -0.19229,-0.18828 -0.4925,-0.34232 -0.66713,-0.34232 -0.17463,0 -1.02933,-0.47288 -1.89933,-1.05085 -0.87,-0.57797 -1.67234,-1.05422 -1.78298,-1.05834 -0.11063,-0.004 -0.79402,-0.42419 -1.51864,-0.93352 -0.72462,-0.50932 -1.36827,-0.92604 -1.43034,-0.92604 -0.58271,0 -14.74944,-10.03858 -17.35249,-12.29602 -2.21999,-1.92524 -9.70483,-9.5889 -12.79821,-13.10398 -1.85692,-2.11005 -3.69989,-4.19365 -4.09551,-4.63021 -0.39561,-0.43656 -1.96455,-2.46062 -3.48654,-4.49792 -1.52198,-2.03729 -2.83286,-3.76369 -2.91306,-3.83645 -0.16474,-0.14947 -4.21483,-6.2265 -4.62281,-6.93639 -0.14552,-0.25321 -1.34546,-2.33821 -2.66653,-4.63335 -1.32107,-2.29513 -3.33329,-6.07797 -4.47159,-8.40631 -2.11126,-4.31844 -2.21609,-4.54782 -3.44606,-7.54062 -0.38874,-0.94589 -0.8587,-2.07698 -1.04436,-2.51354 -0.18566,-0.43657 -0.60467,-1.50813 -0.93114,-2.38125 -0.32647,-0.87313 -0.76061,-1.94469 -0.964751,-2.38125 -0.20414,-0.43657 -0.48035,-1.15094 -0.6138,-1.5875 -0.13345,-0.43657 -0.59186,-1.75752 -1.01869,-2.93546 -0.42683,-1.17794 -0.86296,-2.60669 -0.96918,-3.175 -0.10622,-0.56831 -0.28895,-1.15236 -0.40608,-1.29788 -0.22297,-0.27702 -0.85606,-2.42267 -1.44424,-4.89479 -0.19043,-0.80036 -0.52507,-2.05052 -0.74364,-2.77812 -0.6439,-2.14349 -0.98138,-3.57373 -1.3734799,-5.82084 -0.20314,-1.16416 -0.48323,-2.41432 -0.62243,-2.77812 -0.1392,-0.3638 -0.34201,-1.55443 -0.45069,-2.64584 -0.10868,-1.0914 -0.30071,-2.25669 -0.42672,-2.58952 -0.12602,-0.33284 -0.35134,-1.99971 -0.50072,-3.70417 -0.14938,-1.70446 -0.46008,-4.55533 -0.69044,-6.33528 -0.34601,-2.67344 -0.39577,-5.18121 -0.2861,-14.41979 0.0768,-6.46819 0.25322,-11.74131 0.41847,-12.50644 0.15715,-0.72761 0.40044,-2.45402 0.54065,-3.83646 0.29094,-2.86858 0.90731,-6.74421 1.47275,-9.26042 0.21255,-0.94589 0.45953,-2.3151 0.54884,-3.04271 0.0893,-0.7276 0.3206699,-1.91823 0.5141599,-2.64583 0.75346,-2.83337 1.43717,-5.59741 1.60347,-6.48229 0.0957,-0.50933 0.2656,-1.04511 0.37751,-1.19063 0.11192,-0.14552 0.28638,-0.6813 0.3877,-1.19062 0.1818,-0.91391 0.967,-3.61503 1.4998,-5.15938 0.15062,-0.43656 0.43611,-1.32953 0.63443,-1.98437 1.22401,-4.04157 2.699421,-8.02026 3.973651,-10.71562 0.48156,-1.01864 1.41344,-3.10224 2.07084,-4.63021 1.26815,-2.94752 3.51762,-7.45555 4.48886,-8.99583 0.92938,-1.47392 1.19834,-1.93315 1.62705,-2.77813 0.22149,-0.43656 0.66975,-1.23563 0.99613,-1.7757 0.32638,-0.54007 1.18516,-1.96882 1.90841,-3.175 1.6797,-2.8013 3.76843,-5.89705 5.76391,-8.54281 0.10985,-0.14565 0.73493,-0.97024 1.38906,-1.83242 0.65413,-0.86218 1.18933,-1.63956 1.18933,-1.72751 0,-0.088 0.39083,-0.57315 0.86851,-1.07823 0.47768,-0.50508 1.69807,-1.92748 2.71198,-3.16088 1.01391,-1.23341 2.02206,-2.43002 2.24034,-2.65915 0.21828,-0.22913 0.99161,-1.12498 1.71849,-1.99078 1.40625,-1.67498 9.1115,-9.44621 11.48475,-11.58309 3.60317,-3.24429 8.58092,-7.0213 13.51968,-10.25843 1.67349,-1.09689 3.75653,-2.46235 4.62897,-3.03434 0.87245,-0.572 1.88448,-1.18982 2.24896,-1.37295 0.36448,-0.18312 1.13895,-0.62393 1.72103,-0.97956 0.58208,-0.35564 1.23693,-0.72992 1.45521,-0.83174 0.21828,-0.10182 0.57547,-0.33119 0.79375,-0.5097 0.73311,-0.59954 7.35719,-4.03578 10.84791,-5.62736 2.98833,-1.36251 9.455039,-3.94667 10.451049,-4.17633 0.43656,-0.10066 0.91439,-0.27686 1.06185,-0.39155 0.14745,-0.11468 0.86183,-0.35358 1.5875,-0.53087 0.72567,-0.17729 1.45189,-0.42525 1.61383,-0.55102 0.16194,-0.12577 0.99537,-0.35771 1.85208,-0.51542 0.85671,-0.15772 1.67672,-0.38368 1.82224,-0.50213 0.14552,-0.11846 0.85989,-0.30071 1.5875,-0.40501 0.7276,-0.10429 1.6801,-0.33488 2.11666,-0.51241 0.43657,-0.17753 1.27,-0.40825 1.85209,-0.51271 0.58208,-0.10446 1.65364,-0.35436 2.38125,-0.55532 2.39137,-0.6605 6.05703,-1.42093 7.67291,-1.59172 0.87313,-0.0923 2.06375,-0.28064 2.64584,-0.41857 1.33311,-0.31588 7.77502,-0.97355 12.96458,-1.32359 4.19988,-0.28328 13.12277,-0.11939 16.66875,0.30616 1.16417,0.13971 3.54542,0.36407 5.29167,0.49857 2.85454,0.21988 5.30381,0.58239 9.26041,1.37063 0.72761,0.14495 2.21589,0.42223 3.3073,0.61616 1.86102,0.3307 4.35505,0.90547 8.06979,1.85976 2.83798,0.72905 7.53846,2.17509 9.17717,2.82324 0.68182,0.26968 1.37296,0.49032 1.53587,0.49032 0.16291,0 0.79568,0.22088 1.40616,0.49083 0.61048,0.26996 1.82434,0.76286 2.69747,1.09534 0.87312,0.33248 1.94468,0.75419 2.38125,0.93713 0.43656,0.18294 1.44859,0.60235 2.24895,0.93202 1.72601,0.71094 5.78595,2.55322 6.35,2.88144 0.21829,0.12702 1.52797,0.80326 2.91042,1.50276 3.10829,1.57275 7.06714,3.81194 8.99583,5.08818 0.80037,0.52961 1.64833,1.08199 1.88436,1.22751 2.58768,1.59537 8.97043,6.22974 13.81262,10.02901 3.78863,2.97264 10.68294,9.54832 14.72878,14.04807 0.91588,1.01865 2.03926,2.26881 2.49638,2.77813 0.45713,0.50932 1.59319,1.87854 2.52458,3.04271 0.93139,1.16416 1.87964,2.31931 2.10722,2.56698 1.58211,1.72184 7.40688,9.84939 8.58935,11.9851 0.24171,0.43656 0.64421,1.1107 0.89445,1.49809 0.25024,0.38739 0.84606,1.39942 1.32405,2.24896 0.47799,0.84954 0.98429,1.72321 1.12511,1.94149 0.14082,0.21828 0.37474,0.69453 0.51983,1.05834 0.14509,0.3638 0.37799,0.84005 0.51756,1.05833 0.13957,0.21828 0.56088,1.05172 0.93625,1.85208 0.37536,0.80037 0.79789,1.6338 0.93894,1.85209 0.14105,0.21828 0.38737,0.69453 0.54738,1.05833 0.16001,0.3638 0.39755,0.84005 0.52787,1.05833 0.13033,0.21828 0.35566,0.69453 0.50075,1.05834 0.14509,0.3638 0.38368,0.84005 0.53022,1.05833 0.14653,0.21828 0.33286,0.57547 0.41405,0.79375 0.18398,0.49462 0.80854,1.86691 2.16753,4.7625 1.93174,4.11596 2.17939,4.68587 2.17939,5.01524 0,0.17989 0.17698,0.6431 0.39328,1.02936 0.43972,0.78521 1.06989,2.48217 1.5872,4.27414 0.18905,0.65485 0.4647,1.48828 0.61255,1.85209 0.31796,0.78233 1.10555,3.32022 1.88849,6.08541 0.30902,1.09141 0.78248,2.75828 1.05213,3.70417 0.76158,2.67146 1.34077,5.26219 1.59707,7.14375 0.30948,2.27195 0.73328,4.83567 1.33397,8.06979 0.27029,1.45521 0.56002,3.68021 0.64385,4.94444 0.0838,1.26423 0.26941,2.60628 0.41238,2.98233 0.77753,2.04505 0.99344,25.24961 0.27953,30.04094 -0.11926,0.80037 -0.35454,2.52677 -0.52285,3.83646 -0.70456,5.48236 -1.54693,10.79324 -1.83105,11.54425 -0.13037,0.34462 -0.32088,1.28143 -0.42335,2.08179 -0.10246,0.80037 -0.346,2.05052 -0.54119,2.77813 -0.1952,0.7276 -0.61572,2.33494 -0.93449,3.57187 -0.31878,1.23693 -0.79162,2.96334 -1.05077,3.83646 -0.25914,0.87313 -0.73528,2.48047 -1.05807,3.57188 -0.57366,1.93961 -1.45327,4.62253 -2.38549,7.27604 -1.70253,4.84612 -8.11249,17.94528 -11.96725,24.45583 -0.69122,1.16745 -1.25677,2.23593 -1.25677,2.3744 0,0.13847 -0.16316,0.41492 -0.36257,0.61433 -0.19941,0.19941 -0.55811,0.71393 -0.79711,1.14338 -0.57634,1.03558 -2.26127,3.60326 -4.54286,6.92291 -0.73756,1.07311 -5.43631,6.99695 -5.83129,7.35165 -0.16205,0.14552 -0.87815,0.9797 -1.59135,1.85374 -2.21364,2.71289 -2.95297,3.49506 -9.89357,10.46689 -3.71078,3.72747 -7.22313,7.11964 -7.80521,7.53814 -0.58208,0.4185 -1.49113,1.12211 -2.0201,1.56357 -0.52897,0.44146 -1.83866,1.43563 -2.91041,2.20926 -4.88973,3.52957 -6.32988,4.54652 -6.43853,4.54652 -0.10556,0 -1.71421,1.01632 -2.40213,1.51763 -0.15258,0.11119 -0.58933,0.38076 -0.97056,0.59904 -0.38124,0.21828 -1.86374,1.08743 -3.29446,1.93145 -3.20599,1.89129 -3.24375,1.9125 -4.05652,2.27923 -0.3638,0.16414 -1.37583,0.7153 -2.24896,1.22479 -1.77254,1.03431 -8.27758,4.24226 -10.31875,5.08866 -1.28198,0.5316 -2.50151,0.99008 -5.82083,2.18835 -0.87313,0.31519 -1.94469,0.73138 -2.38125,0.92485 -0.43656,0.19348 -1.21047,0.43326 -1.71979,0.53284 -0.50933,0.0996 -1.2237,0.3294 -1.5875,0.51071 -0.3638,0.18131 -1.10292,0.40954 -1.64247,0.50719 -0.53956,0.0976 -1.31347,0.35096 -1.71979,0.5629 -0.40633,0.21195 -1.07003,0.38609 -1.47489,0.38698 -0.40485,9e-4 -1.13774,0.16945 -1.62863,0.37456 -0.4909,0.20511 -1.5884,0.51567 -2.4389,0.69013 -0.8505,0.17447 -1.66543,0.41097 -1.81095,0.52555 -0.14552,0.11459 -1.14165,0.34304 -2.21362,0.50767 -1.07197,0.16463 -2.14353,0.40064 -2.38125,0.52445 -0.23772,0.12381 -1.60936,0.36174 -3.04809,0.52874 -1.43873,0.16699 -2.7254,0.37131 -2.85927,0.45405 -0.13387,0.0827 -1.81423,0.30931 -3.73413,0.50351 -1.91989,0.19419 -4.56228,0.47436 -5.87197,0.62259 -3.16436,0.35815 -10.14486,0.46414 -18.27302,0.27746 z m 20.91885,-8.25036 c 1.45521,-0.22935 3.5388,-0.55063 4.63021,-0.71396 6.40193,-0.95804 8.00558,-1.25778 11.50938,-2.15124 0.58208,-0.14843 1.71317,-0.4307 2.51354,-0.62727 0.80036,-0.19656 1.81239,-0.48302 2.24896,-0.63657 0.88233,-0.31035 2.81725,-0.92532 4.6302,-1.47162 0.65485,-0.19732 2.38125,-0.80428 3.83646,-1.34879 1.45521,-0.54452 3.18162,-1.1878 3.83646,-1.42953 0.65484,-0.24172 1.42875,-0.56743 1.71979,-0.72379 0.29104,-0.15637 1.00542,-0.43455 1.5875,-0.61819 0.58209,-0.18364 1.1774,-0.42286 1.32292,-0.53161 0.14552,-0.10874 0.56224,-0.28621 0.92604,-0.39438 1.4499,-0.43107 10.7994,-5.01349 11.1125,-5.4465 0.0728,-0.10063 0.54901,-0.37812 1.05833,-0.61665 0.91294,-0.42755 1.21067,-0.59791 2.77813,-1.58959 1.73525,-1.09785 2.9169,-1.8779 3.04271,-2.00861 0.0728,-0.0756 0.99567,-0.73078 2.0509,-1.45596 3.31085,-2.27526 9.33657,-6.76984 10.0496,-7.49598 0.25696,-0.26168 1.71444,-1.47694 3.23883,-2.70056 3.36041,-2.69739 9.72776,-8.98881 12.5675,-12.41762 1.14344,-1.38063 2.20804,-2.65642 2.36576,-2.83509 0.57358,-0.64971 0.91978,-1.09494 3.36598,-4.32876 1.36898,-1.80977 2.84102,-3.82627 3.27119,-4.48111 0.43017,-0.65485 1.17161,-1.67914 1.64764,-2.27621 0.47604,-0.59707 0.86552,-1.1677 0.86552,-1.26807 0,-0.10037 0.47625,-0.82716 1.05833,-1.6151 0.58208,-0.78794 1.05833,-1.49845 1.05833,-1.57891 0,-0.0805 0.42213,-0.74687 0.93806,-1.48089 0.51593,-0.73403 1.05784,-1.59601 1.20424,-1.91552 0.1464,-0.31951 0.54639,-1.05718 0.88887,-1.63926 2.04779,-3.4804 5.9674,-11.3897 7.53938,-15.21354 0.32903,-0.80037 0.82369,-1.96441 1.09926,-2.58677 0.27556,-0.62236 0.50507,-1.2772 0.51,-1.45521 0.005,-0.17801 0.23903,-0.7999 0.52019,-1.38198 0.28117,-0.58209 0.51599,-1.23693 0.52182,-1.45521 0.006,-0.21828 0.17725,-0.71628 0.38092,-1.10666 0.20367,-0.39038 0.45695,-1.10428 0.56285,-1.58644 0.1059,-0.48216 0.34681,-1.23432 0.53534,-1.67147 0.34716,-0.80493 0.93152,-2.76949 1.96782,-6.61564 0.31367,-1.16417 0.78569,-2.89057 1.04892,-3.83646 0.49016,-1.76128 0.88401,-3.51617 1.36577,-6.08542 0.15007,-0.80036 0.44578,-2.20883 0.65713,-3.12993 0.21135,-0.9211 0.49423,-2.8261 0.62862,-4.23333 0.1344,-1.40724 0.36597,-3.15392 0.5146,-3.88153 1.05885,-5.18322 0.99062,-29.2317 -0.0995,-35.05729 -0.20422,-1.09141 -0.44158,-2.81781 -0.52747,-3.83646 -0.0859,-1.01864 -0.3431,-2.74505 -0.57159,-3.83646 -1.46684,-7.00669 -1.85965,-8.6889 -3.05828,-13.09687 -0.60566,-2.22734 -2.25529,-7.47443 -2.86979,-9.12813 -0.24333,-0.65484 -0.71118,-2.02406 -1.03966,-3.04271 -0.68638,-2.1285 -1.47827,-4.26958 -2.17734,-5.88696 -1.27732,-2.95522 -1.59994,-3.66722 -1.8283,-4.0349 -0.13557,-0.21828 -0.37144,-0.69453 -0.52415,-1.05833 -0.38527,-0.91785 -1.14926,-2.41304 -2.50106,-4.8948 -0.63411,-1.16417 -1.28783,-2.41432 -1.4527,-2.77812 -0.46935,-1.0357 -4.16587,-7.0127 -6.05443,-9.78959 -0.94021,-1.38245 -2.47864,-3.64463 -3.41875,-5.02708 -4.05228,-5.95897 -7.63212,-10.22867 -13.42094,-16.00729 -3.81976,-3.81303 -6.73809,-6.51438 -8.86091,-8.20209 -0.54911,-0.43656 -2.49095,-1.98437 -4.31519,-3.43958 -1.82424,-1.45521 -3.92866,-3.06255 -4.67649,-3.57187 -0.74783,-0.50933 -1.50097,-1.05438 -1.67364,-1.21124 -0.29267,-0.26587 -4.74547,-3.29332 -5.8848,-4.00107 -5.13643,-3.19071 -12.59223,-7.02891 -18.37051,-9.45703 -0.94588,-0.39748 -2.07698,-0.87459 -2.51354,-1.06025 -0.43656,-0.18566 -1.50812,-0.60566 -2.38125,-0.93335 -0.87312,-0.32768 -1.96246,-0.75306 -2.42075,-0.94527 -0.45828,-0.19222 -1.29172,-0.43355 -1.85208,-0.5363 -0.56036,-0.10276 -1.25369,-0.34852 -1.54073,-0.54616 -0.28704,-0.19763 -0.70376,-0.35761 -0.92604,-0.3555 -0.22228,0.002 -1.23759,-0.24994 -2.25623,-0.5601 -3.35438,-1.02135 -5.25893,-1.5358 -7.80521,-2.10829 -1.38245,-0.31083 -3.45894,-0.79096 -4.61444,-1.06696 -1.15549,-0.276 -2.38732,-0.50182 -2.7374,-0.50182 -0.35008,0 -1.25015,-0.17067 -2.00015,-0.37927 -0.75,-0.2086 -2.97098,-0.5129 -4.93551,-0.67622 -1.96453,-0.16332 -4.52438,-0.4009 -5.68854,-0.52795 -2.9333,-0.32011 -16.39157,-0.31173 -19.44688,0.0121 -1.38245,0.14654 -3.70416,0.37307 -5.15937,0.50342 -1.45521,0.13034 -3.65787,0.41709 -4.89479,0.63722 -1.23693,0.22013 -3.0824,0.5195 -4.10105,0.66527 -2.51142,0.3594 -5.92495,1.03969 -6.26196,1.24798 -0.15139,0.0936 -1.12611,0.39891 -2.16602,0.67853 -3.67414,0.98796 -4.55559,1.25665 -6.38868,1.94747 -1.01865,0.38389 -2.38402,0.86877 -3.03416,1.07751 -0.65014,0.20874 -1.29903,0.49649 -1.44198,0.63944 -0.14295,0.14295 -0.45983,0.2599 -0.70418,0.2599 -0.39071,0 -1.46434,0.42667 -4.34468,1.72657 -0.43657,0.19702 -1.508129,0.61621 -2.381249,0.93152 -1.95766,0.70698 -2.38977,0.89587 -6.35,2.77577 -1.74625,0.82893 -3.41313,1.61513 -3.70417,1.7471 -0.29104,0.13197 -1.00542,0.52659 -1.5875,0.87694 -0.58208,0.35034 -1.41552,0.82352 -1.85208,1.0515 -0.43657,0.22797 -1.15094,0.65297 -1.5875,0.94444 -0.43657,0.29147 -1.0942,0.67867 -1.4614,0.86045 -2.11722,1.04809 -12.67401,8.48234 -15.15369,10.67145 -0.17866,0.15773 -1.39492,1.1777 -2.7028,2.26659 -2.95134,2.45719 -10.7729,10.17447 -13.36757,13.18934 -1.06453,1.23693 -2.01319,2.30849 -2.10813,2.38125 -0.16297,0.1249 -4.05452,5.08018 -4.88297,6.21771 -0.21197,0.29104 -0.66695,0.88635 -1.01107,1.32292 -1.28155,1.62579 -7.31724,10.95401 -8.98773,13.89062 -3.75917,6.60836 -8.09607,15.80947 -9.97682,21.16667 -0.1788,0.50932 -0.56542,1.52135 -0.85915,2.24895 -0.29373,0.72761 -0.68656,1.8587 -0.87295,2.51355 -0.18638,0.65484 -0.46115,1.48828 -0.61058,1.85208 -0.24885,0.60583 -1.10105,3.43197 -2.03447,6.74687 -0.66245,2.35263 -1.24754,4.98933 -1.46813,6.6161 -0.1185,0.87396 -0.33546,1.90466 -0.48213,2.29043 -0.14668,0.38578 -0.34679,1.45666 -0.44469,2.37974 -0.0979,0.92307 -0.334161,2.45222 -0.525011,3.39811 -0.19085,0.94589 -0.422,2.61276 -0.51367,3.70417 -0.0917,1.0914 -0.3686,3.175 -0.6154,4.63021 -0.652,3.84438 -0.64699,27.22821 0.007,30.42708 0.23784,1.16417 0.50549,2.89057 0.59478,3.83646 0.0893,0.94588 0.3232,2.3151 0.51978,3.04271 0.19659,0.7276 0.431401,1.85869 0.521801,2.51354 0.31153,2.25649 1.9331,9.8293 2.40786,11.24479 0.19523,0.58208 0.42996,1.47505 0.52161,1.98438 0.0917,0.50932 0.32502,1.34276 0.51857,1.85208 0.19356,0.50932 0.67412,1.9976 1.06793,3.30729 0.3938,1.30969 0.8839,2.77224 1.08911,3.25012 0.20521,0.47788 0.37331,1.01366 0.37356,1.19063 4.5e-4,0.31504 2.77042,7.35676 3.61318,9.18529 0.23474,0.50933 0.63738,1.40229 0.89475,1.98438 0.56855,1.28587 2.8426,5.93092 3.17351,6.48229 0.31994,0.5331 2.91448,5.09664 3.50328,6.16192 0.25825,0.46725 0.70112,1.20673 0.98414,1.64329 0.28303,0.43656 0.71319,1.15094 0.95593,1.5875 0.43095,0.77508 2.11128,3.38835 5.61418,8.73125 4.83161,7.36956 10.2336,13.25563 21.58574,23.52008 2.56339,2.31778 8.35255,7.11117 9.4165,7.7968 0.3638,0.23444 0.79434,0.54686 0.95674,0.69427 0.16241,0.14741 1.33075,0.92286 2.59632,1.72322 1.26557,0.80037 3.07677,1.96123 4.0249,2.57969 0.94813,0.61846 1.78308,1.12448 1.85544,1.12448 0.0724,0 0.94101,0.47274 1.93033,1.05053 1.8138,1.05932 8.12775,4.26638 10.3321,5.24801 0.65485,0.29162 2.50032,1.08429 4.10105,1.76149 1.60073,0.67721 3.267599,1.39066 3.704159,1.58546 2.3634,1.05456 7.30843,2.71067 11.90625,3.98745 0.72761,0.20205 2.15636,0.60382 3.175,0.89282 1.01865,0.28901 2.43315,0.60137 3.14334,0.69415 0.71019,0.0928 1.54362,0.27818 1.85208,0.41201 0.64575,0.28016 4.49196,0.90471 8.89521,1.44441 1.67349,0.20511 3.34036,0.45342 3.70417,0.55179 1.65673,0.44797 5.42761,0.56928 15.875,0.51072 8.69016,-0.0487 11.84588,-0.15777 13.89062,-0.48004 z"
           id="path2-3"
           transform="translate(1.6666667e-6)" />
      </g>
    </g>
  </g>
</svg>
